<?xml version="1.0"?>
<svg xmlns="http://www.w3.org/2000/svg" id="_1-Folder" data-name="1-Folder" viewBox="0 0 60 60" width="512" height="512"><path d="M54,59H6a6.006,6.006,0,0,1-6-6V20a6.006,6.006,0,0,1,6-6H54a6.006,6.006,0,0,1,6,6V53A6.006,6.006,0,0,1,54,59ZM6,16a4,4,0,0,0-4,4V53a4,4,0,0,0,4,4H54a4,4,0,0,0,4-4V20a4,4,0,0,0-4-4Z"/><path d="M1,25a1,1,0,0,1-1-1V5A3.887,3.887,0,0,1,4,1H23a1,1,0,0,1,.848.47L28.554,9H46a5.785,5.785,0,0,1,6,6,1,1,0,0,1-2,0c0-3.955-3.837-4-4-4H28a1,1,0,0,1-.848-.47L22.446,3H4A1.882,1.882,0,0,0,2,5V24A1,1,0,0,1,1,25Z"/></svg>
